<svg width="512" height="512" viewBox="0 0 512 512" fill="none" xmlns="http://www.w3.org/2000/svg">
  <defs>
    <linearGradient id="g-bg" x1="64" y1="48" x2="448" y2="464" gradientUnits="userSpaceOnUse">
      <stop stop-color="#2563EB"/>
      <stop offset="0.55" stop-color="#14B8A6"/>
      <stop offset="1" stop-color="#7C3AED"/>
    </linearGradient>
    <linearGradient id="g-card" x1="132" y1="116" x2="326" y2="348" gradientUnits="userSpaceOnUse">
      <stop stop-color="#FFFFFF"/>
      <stop offset="1" stop-color="#EAF2FF"/>
    </linearGradient>
    <linearGradient id="g-accent" x1="148" y1="340" x2="390" y2="230" gradientUnits="userSpaceOnUse">
      <stop stop-color="#14B8A6"/>
      <stop offset="1" stop-color="#2563EB"/>
    </linearGradient>
    <linearGradient id="g-ai" x1="318" y1="92" x2="430" y2="220" gradientUnits="userSpaceOnUse">
      <stop stop-color="#8B5CF6"/>
      <stop offset="1" stop-color="#06B6D4"/>
    </linearGradient>
  </defs>
  <!-- Background -->
  <rect x="40" y="40" width="432" height="432" rx="104" fill="url(#g-bg)"/>
  <rect x="64" y="64" width="384" height="384" rx="88" fill="#ffffff"/>
  <!-- Card shadow (solid shape, no filter) -->
  <rect x="130" y="130" width="220" height="264" rx="34" fill="#172554" fill-opacity="0.15"/>
  <!-- Resume card -->
  <rect x="116" y="122" width="220" height="270" rx="34" fill="url(#g-card)"/>
  <rect x="116" y="122" width="220" height="270" rx="34" fill="none" stroke="#1D4ED8" stroke-width="16"/>
  <!-- Clipboard top -->
  <rect x="176" y="96" width="100" height="54" rx="20" fill="#1D4ED8"/>
  <circle cx="226" cy="122" r="14" fill="#ffffff"/>
  <!-- Avatar -->
  <circle cx="180" cy="190" r="36" fill="#DBEAFE"/>
  <circle cx="180" cy="178" r="14" fill="#2563EB"/>
  <path d="M153 218C158 201 168 194 180 194C192 194 202 201 207 218" fill="#2563EB"/>
  <!-- Resume lines -->
  <rect x="228" y="166" width="70" height="12" rx="6" fill="#2563EB"/>
  <rect x="228" y="192" width="86" height="12" rx="6" fill="#6366F1"/>
  <rect x="150" y="258" width="138" height="11" rx="5.5" fill="#CBD5E1"/>
  <rect x="150" y="286" width="118" height="11" rx="5.5" fill="#CBD5E1"/>
  <rect x="150" y="326" width="22" height="22" rx="11" fill="#14B8A6"/>
  <rect x="184" y="331" width="82" height="11" rx="5.5" fill="#CBD5E1"/>
  <!-- Arrow -->
  <path d="M153 373C216 415 290 404 340 356" stroke="url(#g-accent)" stroke-width="28" stroke-linecap="round"/>
  <path d="M346 326L374 361L331 371" stroke="url(#g-accent)" stroke-width="26" stroke-linecap="round" stroke-linejoin="round"/>
  <!-- Table -->
  <rect x="276" y="270" width="142" height="108" rx="24" fill="#0F766E"/>
  <rect x="294" y="292" width="106" height="66" rx="10" fill="#ffffff"/>
  <rect x="306" y="304" width="25" height="16" rx="3" fill="#14B8A6"/>
  <rect x="338" y="304" width="25" height="16" rx="3" fill="#14B8A6"/>
  <rect x="370" y="304" width="18" height="16" rx="3" fill="#14B8A6"/>
  <rect x="306" y="330" width="25" height="16" rx="3" fill="#CCFBF1"/>
  <rect x="338" y="330" width="25" height="16" rx="3" fill="#CCFBF1"/>
  <rect x="370" y="330" width="18" height="16" rx="3" fill="#CCFBF1"/>
  <!-- Click button -->
  <circle cx="270" cy="382" r="46" fill="#6D28D9"/>
  <circle cx="270" cy="382" r="40" fill="none" stroke="#ffffff" stroke-width="8"/>
  <path d="M270 362V402" stroke="#ffffff" stroke-width="12" stroke-linecap="round"/>
  <path d="M250 382H290" stroke="#ffffff" stroke-width="12" stroke-linecap="round"/>
  <!-- Cursor -->
  <path d="M314 388L374 418L344 432L332 465L314 388Z" fill="#0F172A" stroke="#ffffff" stroke-width="8" stroke-linejoin="round"/>
  <!-- AI sparkle -->
  <path d="M371 96C379 129 392 142 425 150C392 158 379 171 371 204C363 171 350 158 317 150C350 142 363 129 371 96Z" fill="url(#g-ai)"/>
  <circle cx="426" cy="220" r="13" fill="#06B6D4"/>
  <circle cx="322" cy="112" r="10" fill="#14B8A6"/>
  <circle cx="322" cy="220" r="10" fill="#7C3AED"/>
  <!-- AI circuit lines -->
  <path d="M338 224V252L318 272V298" stroke="url(#g-ai)" stroke-width="10" stroke-linecap="round" stroke-linejoin="round"/>
  <path d="M380 228L354 254V286" stroke="url(#g-ai)" stroke-width="10" stroke-linecap="round" stroke-linejoin="round"/>
  <circle cx="380" cy="228" r="12" fill="#ffffff" stroke="#7C3AED" stroke-width="8"/>
</svg>
